# xmcd
# 
# Track frame offsets:
#   150
#   24014
#   45450
# 
# Disc length: 1000 seconds
# 
# Revision: 1
# Processed by: cddbd v1.5.1PL0 Copyright (c) Steve Scherf et al.
# Submitted via: VOLTOCDX V1.0.24 
# 
DISCID=1303e603
DTITLE=Tansen Bhopali - Kaun Ho Tum
DYEAR=2004
DGENRE=Description of the extended genre
TTITLE0=Woh Teri Gali
TTITLE1=Aaja Meri Anarkali
TTITLE2=Tere Aashikon Ki Kasam
EXTD=Extended CD description
EXTT0=
EXTT1=
EXTT2=
PLAYORDER=
